<?xml version="1.0" standalone="no"?>
<!DOCTYPE svg PUBLIC "-//W3C//DTD SVG 20010904//EN"
 "http://www.w3.org/TR/2001/REC-SVG-20010904/DTD/svg10.dtd">
<svg version="1.0" xmlns="http://www.w3.org/2000/svg"
 width="512.000000pt" height="512.000000pt" viewBox="0 0 512.000000 512.000000"
 preserveAspectRatio="xMidYMid meet">
<metadata>
Created by potrace 1.14, written by Peter Selinger 2001-2017
</metadata>
<g transform="translate(0.000000,512.000000) scale(0.100000,-0.100000)"
fill="#000000" stroke="none">
<path d="M2342 4830 c2 -10 -4 -14 -16 -12 -13 2 -16 -1 -10 -10 6 -9 3 -9
-10 1 -14 12 -19 12 -26 2 -6 -11 -9 -11 -14 0 -4 10 -7 11 -12 2 -3 -7 -11
-10 -19 -7 -7 3 -16 0 -20 -6 -5 -8 -11 -8 -21 1 -12 10 -13 9 -7 -7 6 -16 5
-17 -9 -6 -11 9 -18 10 -23 2 -3 -6 -11 -8 -16 -4 -17 10 -61 -5 -52 -19 4 -8
1 -7 -10 2 -9 7 -17 9 -17 4 0 -6 -12 -9 -26 -7 -17 1 -24 -2 -21 -10 5 -11
-9 -14 -75 -17 -10 0 -21 -5 -24 -11 -5 -7 -2 -8 7 -3 8 5 11 4 6 -1 -4 -4
-20 -9 -35 -10 -14 0 -28 -6 -30 -13 -2 -6 -8 -11 -13 -11 -6 0 -7 5 -3 12 5
7 3 8 -7 2 -8 -4 -21 -9 -29 -11 -8 -1 -20 -10 -27 -19 -7 -10 -13 -14 -13
-10 0 5 -6 3 -14 -3 -8 -6 -20 -10 -27 -9 -8 2 -14 -4 -13 -12 1 -11 -7 -15
-27 -14 -16 1 -27 -2 -26 -6 1 -4 -2 -9 -8 -11 -5 -1 -15 -9 -21 -17 -8 -11
-13 -12 -18 -3 -4 6 -12 9 -17 5 -5 -3 -7 -10 -4 -15 4 -5 -1 -9 -9 -9 -9 0
-16 -5 -16 -11 0 -6 -7 -9 -15 -5 -8 3 -15 1 -15 -5 0 -5 -13 -15 -30 -20 -16
-6 -27 -15 -24 -20 3 -5 -2 -9 -11 -9 -10 0 -13 -5 -9 -12 5 -8 2 -8 -10 1
-14 12 -17 12 -14 1 2 -8 -4 -14 -12 -15 -8 0 -15 -5 -15 -12 0 -6 -4 -15 -9
-20 -5 -5 -6 -3 -2 5 13 22 -6 13 -35 -17 -15 -16 -30 -27 -33 -23 -3 3 -6 1
-6 -5 0 -6 -9 -13 -21 -16 -12 -3 -18 -10 -14 -16 5 -10 -7 -15 -27 -12 -5 0
-8 -6 -8 -14 0 -8 -5 -15 -11 -15 -7 0 -22 -11 -34 -24 -13 -14 -25 -22 -28
-19 -3 2 -13 -9 -22 -26 -8 -17 -19 -31 -23 -31 -5 0 -17 -7 -28 -16 -10 -8
-12 -12 -4 -8 13 7 13 5 1 -9 -7 -9 -18 -14 -24 -10 -7 4 -8 0 -3 -13 4 -10 4
-16 1 -12 -8 8 -61 -44 -57 -56 2 -5 -4 -6 -13 -2 -9 3 -14 2 -11 -3 3 -5 -5
-20 -19 -35 -13 -14 -22 -26 -19 -26 3 0 -7 -12 -21 -26 -14 -14 -22 -30 -19
-36 5 -8 1 -9 -10 -5 -10 4 -15 3 -11 -3 3 -6 0 -10 -7 -10 -9 0 -9 -3 2 -10
13 -8 13 -10 -2 -10 -9 0 -20 -9 -23 -20 -4 -11 -11 -17 -17 -14 -6 4 -8 2 -4
-4 3 -6 -1 -17 -9 -26 -8 -8 -14 -21 -13 -28 2 -7 -2 -12 -8 -11 -6 1 -17 -14
-24 -33 -8 -18 -18 -34 -23 -34 -5 0 -7 -6 -4 -12 2 -7 -5 -21 -15 -30 -11 -9
-19 -19 -19 -22 1 -3 1 -14 1 -23 0 -15 -2 -16 -10 -3 -8 12 -10 11 -10 -7 0
-13 -5 -23 -11 -23 -5 0 -7 -5 -4 -11 4 -6 -4 -22 -16 -36 -13 -15 -17 -22 -9
-18 12 7 13 6 3 -7 -7 -8 -9 -18 -5 -22 4 -4 0 -6 -8 -4 -10 2 -14 -5 -14 -24
1 -15 -2 -26 -5 -25 -3 1 -7 -1 -8 -6 -2 -4 -10 -21 -19 -38 -8 -17 -13 -37
-10 -44 2 -7 -2 -16 -10 -19 -8 -3 -14 -11 -13 -18 3 -28 -1 -49 -10 -43 -5 3
-13 0 -17 -6 -4 -8 -3 -9 4 -5 7 4 12 3 12 -3 0 -5 -5 -13 -11 -17 -8 -4 -7
-9 2 -15 12 -7 12 -9 0 -9 -11 0 -11 -3 0 -17 8 -9 9 -14 3 -10 -13 8 -38 -16
-27 -26 3 -4 0 -14 -8 -24 -12 -15 -12 -16 1 -8 13 8 13 7 1 -8 -7 -9 -10 -17
-6 -17 4 0 2 -6 -4 -14 -9 -11 -9 -15 1 -19 9 -4 9 -6 1 -6 -7 -1 -10 -11 -7
-27 3 -14 1 -23 -5 -20 -11 7 -18 -26 -16 -91 1 -41 -2 -50 -11 -42 -10 8 -11
4 -4 -20 5 -17 5 -33 1 -36 -4 -2 -7 -22 -6 -45 1 -23 -3 -40 -9 -40 -6 0 -4
-5 4 -10 12 -8 12 -10 1 -10 -11 0 -11 -3 -1 -16 11 -12 11 -15 0 -12 -18 4
-19 -51 0 -63 13 -9 12 -10 -2 -5 -12 3 -18 0 -18 -10 0 -9 5 -12 13 -8 7 5 6
1 -3 -10 -16 -21 -23 -49 -9 -40 5 3 9 -3 9 -13 0 -11 6 -25 13 -33 10 -12 9
-12 -6 0 -16 12 -18 11 -15 -11 2 -13 7 -30 12 -38 6 -9 5 -12 -1 -8 -6 4 -10
-13 -10 -43 0 -32 4 -47 11 -43 6 4 4 -2 -5 -13 -20 -23 -14 -45 9 -38 14 5
14 3 -1 -6 -18 -11 -18 -12 0 -33 12 -14 13 -18 3 -12 -13 7 -13 6 -2 -7 9
-11 10 -18 2 -23 -6 -3 -7 -12 -3 -18 4 -7 8 -37 9 -67 1 -30 3 -57 4 -60 1
-3 2 -8 1 -12 0 -5 3 -8 7 -8 4 0 8 -18 7 -41 -1 -22 2 -42 6 -45 4 -2 5 -13
2 -24 -3 -11 -1 -20 5 -20 5 0 9 -15 9 -33 0 -17 5 -42 11 -54 7 -12 12 -26
11 -30 -1 -4 -1 -23 0 -41 1 -23 5 -31 13 -26 8 5 9 2 5 -9 -3 -10 -2 -17 3
-17 5 0 7 -7 3 -15 -3 -9 3 -25 13 -37 11 -12 13 -18 7 -14 -9 5 -11 2 -7 -8
3 -9 11 -13 18 -9 6 4 5 -1 -3 -10 -12 -15 -11 -17 3 -17 12 0 15 -8 12 -30
-3 -25 -1 -28 11 -19 11 10 12 8 7 -6 -6 -14 -4 -16 7 -10 12 7 12 6 1 -7 -11
-14 -10 -19 8 -31 14 -10 18 -17 10 -22 -7 -4 -4 -13 11 -26 12 -10 17 -19 10
-19 -7 0 -9 -5 -6 -10 4 -6 10 -8 15 -5 4 3 6 -5 3 -17 -4 -19 -3 -20 7 -8 10
12 11 11 7 -7 -3 -14 0 -23 7 -23 6 0 12 -9 13 -20 1 -12 13 -34 27 -51 15
-17 24 -35 20 -40 -3 -5 0 -9 5 -9 6 0 11 -7 11 -15 0 -8 5 -15 10 -15 6 0 10
-9 10 -21 0 -11 4 -17 10 -14 6 3 10 -1 10 -9 0 -9 5 -16 10 -16 6 0 10 -5 10
-11 0 -5 -5 -7 -12 -3 -7 4 -8 3 -4 -5 6 -9 11 -9 21 -1 9 8 13 7 12 -2 -1
-32 4 -49 13 -43 9 5 14 -7 11 -27 0 -4 8 -10 19 -13 11 -4 18 -11 15 -16 -4
-5 -1 -9 5 -9 7 0 9 -7 6 -16 -3 -8 -2 -13 2 -10 5 3 15 -4 23 -16 21 -30 52
-65 43 -49 -5 9 -3 12 5 7 6 -4 9 -11 6 -15 -2 -5 4 -16 15 -26 11 -10 17 -22
14 -27 -3 -4 -2 -7 3 -6 13 4 103 -89 95 -98 -4 -4 -1 -4 6 0 15 9 86 -59 77
-74 -3 -5 0 -7 9 -4 9 3 21 -5 31 -20 10 -14 26 -26 37 -26 14 0 18 -5 14 -16
-3 -8 -2 -12 4 -9 6 3 10 2 10 -4 0 -5 9 -13 20 -16 11 -4 32 -19 47 -33 14
-15 22 -20 19 -12 -4 8 -1 7 8 -4 8 -10 20 -15 27 -10 7 4 10 3 7 -2 -7 -10
11 -27 32 -32 8 -2 18 -10 23 -17 4 -8 14 -12 22 -9 9 4 18 -1 21 -11 4 -9 13
-14 21 -10 11 4 13 1 9 -11 -5 -13 -2 -15 14 -11 11 3 20 1 20 -4 0 -5 7 -9
15 -9 8 0 15 -4 15 -10 0 -5 9 -10 21 -10 13 0 18 -4 13 -12 -5 -8 -2 -9 9 -5
10 4 17 2 17 -4 0 -6 7 -8 16 -5 8 3 12 2 9 -4 -3 -6 1 -10 10 -10 9 0 23 -7
31 -15 8 -8 21 -12 29 -9 8 3 22 -1 31 -10 8 -9 20 -14 25 -11 5 4 9 0 9 -7 0
-9 3 -9 10 2 9 13 10 13 10 -1 0 -9 10 -16 25 -17 50 -3 55 -6 55 -21 0 -14 2
-14 10 -1 5 8 10 10 10 3 0 -6 8 -10 17 -9 10 2 24 -3 31 -11 12 -11 17 -11
30 -1 12 10 14 10 8 0 -5 -8 0 -12 18 -12 13 0 27 -6 29 -12 4 -10 6 -10 6 0
1 10 5 9 17 -3 14 -13 19 -14 25 -3 7 11 9 11 9 -1 0 -11 3 -11 15 -1 10 8 15
9 15 2 0 -6 7 -9 15 -5 9 3 23 -1 33 -9 11 -9 38 -14 75 -13 33 1 57 -3 57 -9
0 -6 5 -5 12 2 8 8 15 9 25 1 9 -9 13 -8 13 0 0 7 5 9 10 6 6 -4 7 -12 3 -19
-4 -7 -1 -4 9 6 20 22 32 23 24 2 -5 -14 -4 -15 8 -5 9 7 24 10 36 6 12 -4 28
-1 37 7 14 11 16 11 11 -4 -5 -11 -2 -15 10 -13 9 2 21 4 25 4 5 1 5 7 1 14
-6 9 -5 9 7 1 15 -13 72 -16 64 -4 -2 3 2 7 10 7 8 0 12 -4 9 -9 -3 -4 0 -8 5
-8 6 0 11 6 11 13 0 8 4 7 10 -3 5 -8 10 -10 10 -5 0 6 11 11 25 11 14 1 22
-2 19 -8 -4 -7 0 -7 12 0 11 5 30 9 44 8 14 -1 31 4 37 10 7 7 22 10 34 7 15
-4 20 -3 15 5 -5 9 0 9 18 2 15 -5 26 -6 26 -1 0 5 9 7 20 4 11 -3 20 0 20 6
0 6 5 11 11 11 5 0 7 -6 3 -12 -6 -10 -3 -9 8 0 9 8 30 14 46 16 17 1 37 7 44
14 8 6 18 9 21 5 4 -3 13 -1 20 5 8 7 17 9 20 5 4 -3 7 2 7 13 0 14 2 16 9 5
6 -10 10 -10 16 -1 6 9 10 9 16 -1 7 -11 9 -11 9 2 0 9 6 16 13 17 6 0 21 3
32 6 11 2 24 5 28 5 5 1 6 5 3 10 -4 5 6 8 20 6 15 -1 28 3 31 11 3 8 9 12 13
9 5 -3 12 -1 15 5 5 8 11 7 21 -1 12 -10 13 -9 8 6 -5 13 -4 16 4 11 7 -4 12
-3 12 3 0 6 6 8 14 5 8 -3 17 0 22 7 5 8 3 10 -6 4 -9 -5 -11 -4 -6 4 4 6 13
11 19 10 24 -3 38 1 33 10 -3 5 1 12 10 15 10 4 13 2 8 -7 -6 -9 -5 -9 8 0 8
7 19 9 23 5 5 -4 5 -1 1 6 -6 10 5 17 19 10 2 -2 10 6 18 16 9 12 19 16 27 11
10 -6 12 -4 7 8 -5 12 -1 17 12 17 11 0 21 4 23 9 2 5 10 11 17 13 8 2 24 12
35 24 12 12 26 19 33 17 6 -2 14 5 18 17 4 12 9 19 12 16 4 -3 12 2 20 12 9
11 12 12 8 2 -4 -8 7 1 25 20 18 19 29 28 24 20 -7 -13 -5 -13 9 -1 9 7 14 17
11 22 -3 5 -2 9 3 8 20 -4 27 2 13 12 -12 9 -12 10 3 5 22 -7 51 19 41 35 -4
7 -3 9 4 5 6 -3 17 3 25 14 7 11 16 17 20 14 3 -3 10 4 17 15 6 12 16 18 22
15 7 -5 8 -2 4 5 -5 8 0 14 14 18 16 4 18 8 8 14 -10 7 -9 9 5 9 10 0 15 5 12
10 -3 6 1 10 9 10 9 0 16 5 16 11 0 5 6 7 13 3 7 -5 7 -1 -3 12 -8 10 -11 16
-6 12 11 -9 87 67 84 83 -2 7 8 18 22 26 14 7 21 13 16 13 -6 0 -1 7 10 16 10
8 12 13 4 9 -8 -4 -4 2 9 13 14 11 21 24 17 31 -4 6 -4 10 1 9 4 -2 9 2 11 7
2 6 10 14 18 18 8 4 14 15 14 22 0 8 5 15 10 15 6 0 10 7 10 16 0 8 5 12 10 9
6 -3 10 2 10 11 0 10 10 29 23 42 12 14 15 21 7 17 -10 -6 -9 -1 3 13 11 12
16 26 11 33 -5 9 -2 10 12 5 10 -4 15 -4 11 0 -4 4 1 16 10 26 16 18 16 19 -3
13 -16 -6 -17 -5 -3 4 18 12 57 67 40 57 -7 -5 -9 -1 -5 8 3 9 10 13 15 10 5
-3 6 2 3 10 -4 9 0 18 9 22 9 3 13 12 11 19 -3 7 0 16 5 20 6 3 9 11 6 16 -4
5 0 12 9 15 8 3 13 14 11 25 -2 10 1 19 6 19 6 0 8 4 4 9 -3 5 -1 12 5 16 5 3
10 17 10 31 0 16 4 23 11 18 8 -5 10 1 7 19 -3 18 -1 24 8 20 8 -3 11 2 7 15
-2 11 0 23 6 26 5 4 8 13 5 20 -3 8 0 17 7 22 8 5 10 3 4 -6 -5 -9 -4 -11 4
-6 9 6 9 11 0 22 -9 11 -9 14 1 14 7 0 10 6 7 14 -3 7 2 24 10 37 11 15 12 20
3 14 -10 -6 -12 -4 -6 11 4 10 9 24 10 29 1 6 6 16 10 24 7 10 5 12 -5 6 -11
-6 -12 -5 -1 6 6 7 12 28 12 47 0 19 4 31 10 27 7 -4 7 3 0 19 -7 19 -6 26 3
26 8 0 7 4 -3 10 -8 5 -10 10 -4 10 7 0 15 7 18 16 3 8 2 12 -4 9 -6 -3 -9 4
-8 18 1 15 7 23 14 20 13 -5 13 21 2 33 -4 3 -3 17 3 31 6 17 6 22 -3 17 -7
-5 -8 -3 -3 6 13 22 15 141 1 133 -8 -5 -8 -3 0 8 6 8 10 22 9 32 -2 9 2 17 8
17 7 0 4 5 -6 11 -10 6 -14 15 -10 22 11 18 13 68 2 62 -5 -4 -6 1 -3 9 3 9
11 13 18 9 8 -5 8 -3 0 8 -6 8 -10 24 -8 37 3 16 0 21 -8 16 -7 -5 -8 -3 -3 7
13 20 13 69 1 69 -6 0 -6 4 1 11 7 7 8 21 3 38 -4 15 -3 35 2 44 6 11 5 17 -1
17 -5 0 -8 8 -7 18 2 9 -2 36 -9 60 -8 26 -9 44 -4 48 6 4 6 11 -1 19 -8 10
-7 14 2 18 9 4 10 6 1 6 -7 1 -10 8 -7 16 3 8 0 17 -8 20 -9 4 -14 20 -13 46
1 29 -2 38 -12 35 -11 -4 -11 -1 -3 14 7 13 7 20 1 20 -6 0 -8 6 -5 14 3 7 -2
20 -10 29 -8 8 -12 17 -9 21 4 3 0 6 -7 6 -7 0 -10 3 -7 7 4 3 2 12 -4 20 -9
10 -8 17 1 28 7 8 8 15 3 15 -11 0 -38 68 -37 92 1 10 -3 15 -7 12 -5 -3 -9 3
-9 13 0 11 -6 25 -12 32 -11 11 -10 13 2 7 8 -4 7 -1 -4 8 -10 8 -15 20 -11
25 3 6 -1 18 -9 27 -9 9 -14 20 -11 25 4 5 -1 9 -10 9 -9 0 -13 5 -10 10 4 6
-1 22 -10 36 -9 13 -14 28 -11 32 6 10 -20 32 -29 24 -5 -4 -6 3 -3 15 4 13 0
24 -8 27 -8 3 -14 12 -14 21 0 8 -6 15 -12 15 -9 0 -8 4 2 10 13 9 13 10 0 11
-8 1 -19 1 -24 0 -5 -1 -3 6 5 15 9 12 9 15 2 10 -8 -4 -13 -1 -13 9 0 9 -5
13 -10 10 -6 -4 -10 -3 -9 2 4 22 -2 43 -11 38 -5 -3 -10 -1 -10 4 0 6 0 13 0
16 0 3 -14 18 -32 35 -18 18 -25 30 -17 30 10 1 9 4 -4 11 -9 6 -15 14 -12 20
3 5 -1 6 -10 3 -9 -4 -15 -3 -14 2 4 22 -2 34 -18 34 -15 0 -16 2 -3 10 13 8
12 10 -3 10 -10 0 -15 4 -12 10 3 5 -3 15 -15 22 -11 7 -20 18 -20 25 0 7 -4
13 -10 13 -5 0 -10 7 -10 16 0 8 -4 13 -8 10 -11 -7 -42 30 -34 40 4 4 -1 4
-10 1 -11 -4 -15 -2 -12 7 3 8 -4 16 -15 19 -12 3 -21 13 -21 22 0 10 -5 13
-12 9 -8 -5 -9 -2 -5 9 4 10 2 16 -6 14 -7 -1 -11 4 -9 12 3 12 1 12 -14 0
-16 -13 -17 -12 -12 8 3 12 3 22 -1 21 -20 -2 -41 3 -37 10 3 5 -4 14 -14 22
-10 8 -16 18 -13 23 3 6 2 7 -4 4 -6 -4 -20 5 -33 18 -13 13 -26 22 -30 20 -4
-2 -17 7 -29 21 -12 14 -27 22 -33 18 -8 -5 -9 -2 -5 10 4 9 3 15 -1 12 -5 -3
-23 8 -41 25 -18 16 -37 27 -42 24 -5 -4 -9 -1 -9 4 0 6 -7 11 -16 11 -9 0
-12 5 -8 12 5 8 2 9 -9 5 -11 -4 -17 -1 -17 8 0 15 -8 18 -42 18 -10 0 -15 4
-12 8 3 5 -1 9 -9 9 -8 0 -20 7 -27 15 -7 8 -15 13 -19 10 -4 -2 -14 5 -21 15
-11 16 -17 17 -29 7 -12 -10 -13 -9 -6 2 6 11 4 13 -9 8 -10 -4 -15 -3 -11 3
6 9 -8 15 -29 11 -5 -1 -6 4 -3 12 3 7 -1 14 -9 14 -7 0 -11 -5 -8 -11 3 -6
-2 -2 -10 8 -9 11 -16 14 -16 8 0 -7 -4 -12 -10 -12 -5 0 -10 6 -10 14 0 17
-25 27 -47 19 -13 -5 -15 -2 -10 12 6 14 5 16 -7 6 -11 -9 -15 -8 -20 5 -5 14
-9 14 -23 3 -15 -12 -16 -12 -11 2 5 13 2 16 -14 11 -15 -4 -19 -2 -13 7 5 10
2 11 -14 6 -12 -4 -21 -2 -21 4 0 6 -3 10 -7 10 -5 -1 -12 0 -18 1 -9 3 -29 5
-63 9 -8 0 -10 6 -6 14 5 8 2 8 -9 -2 -12 -9 -17 -10 -17 -2 0 7 -4 10 -9 6
-5 -3 -13 0 -17 6 -4 8 -9 7 -16 -2 -7 -10 -11 -11 -14 -2 -3 7 -12 9 -21 6
-11 -4 -14 -2 -9 5 10 16 -6 15 -23 0 -11 -10 -13 -10 -7 0 7 12 2 13 -87 16
-25 1 -37 6 -38 16 0 10 -2 11 -6 2 -2 -6 -10 -9 -16 -5 -19 12 -38 12 -31 1
4 -6 -1 -6 -13 1 -14 7 -24 7 -33 -2 -7 -7 -10 -7 -7 -1 4 7 -37 10 -129 10
-83 -1 -134 -5 -134 -11 0 -7 -3 -7 -8 0 -12 16 -62 13 -62 -4 0 -11 -4 -10
-15 5 -11 13 -14 14 -13 4z m-527 -150 c-3 -5 -12 -10 -18 -10 -7 0 -6 4 3 10
19 12 23 12 15 0z m1305 -4324 c0 -3 -4 -8 -10 -11 -5 -3 -10 -1 -10 4 0 6 5
11 10 11 6 0 10 -2 10 -4z"/>
<path d="M1170 830 c0 -5 5 -10 11 -10 5 0 7 5 4 10 -3 6 -8 10 -11 10 -2 0
-4 -4 -4 -10z"/>
</g>
</svg>
